<mxfile host="app.diagrams.net" modified="2020-11-23T11:43:41.892Z" agent="5.0 (Windows NT 10.0; Win64; x64) AppleWebKit/537.36 (KHTML, like Gecko) Chrome/87.0.4280.66 Safari/537.36" etag="Bj6Jyt4xH8WLAD1wW-4H" version="13.9.9" type="github">
  <diagram name="Page-1" id="e7e014a7-5840-1c2e-5031-d8a46d1fe8dd">
    <mxGraphModel dx="2842" dy="896" grid="1" gridSize="10" guides="1" tooltips="1" connect="1" arrows="1" fold="1" page="1" pageScale="1" pageWidth="1169" pageHeight="826" background="#ffffff" math="0" shadow="0">
      <root>
        <mxCell id="0" />
        <mxCell id="1" parent="0" />
        <mxCell id="KTUMlyn5Q8RxVWPa-o7w-100" value="Gruppo_Musicale" style="whiteSpace=wrap;html=1;align=center;fillColor=#dae8fc;strokeColor=#6c8ebf;" vertex="1" parent="1">
          <mxGeometry x="80" y="120" width="140" height="80" as="geometry" />
        </mxCell>
        <mxCell id="KTUMlyn5Q8RxVWPa-o7w-101" value="Album" style="whiteSpace=wrap;html=1;align=center;fillColor=#dae8fc;strokeColor=#6c8ebf;" vertex="1" parent="1">
          <mxGeometry x="455" y="100" width="140" height="80" as="geometry" />
        </mxCell>
        <mxCell id="KTUMlyn5Q8RxVWPa-o7w-102" value="Concerto" style="whiteSpace=wrap;html=1;align=center;fillColor=#dae8fc;strokeColor=#6c8ebf;" vertex="1" parent="1">
          <mxGeometry x="690" y="413" width="140" height="80" as="geometry" />
        </mxCell>
        <mxCell id="KTUMlyn5Q8RxVWPa-o7w-166" style="edgeStyle=orthogonalEdgeStyle;rounded=0;orthogonalLoop=1;jettySize=auto;html=1;entryX=0.5;entryY=1;entryDx=0;entryDy=0;startArrow=none;startFill=0;endArrow=none;endFill=0;fontColor=#000000;" edge="1" parent="1" source="KTUMlyn5Q8RxVWPa-o7w-103" target="KTUMlyn5Q8RxVWPa-o7w-152">
          <mxGeometry relative="1" as="geometry" />
        </mxCell>
        <mxCell id="KTUMlyn5Q8RxVWPa-o7w-103" value="Artisti" style="whiteSpace=wrap;html=1;align=center;fillColor=#dae8fc;strokeColor=#6c8ebf;" vertex="1" parent="1">
          <mxGeometry x="110" y="473" width="140" height="80" as="geometry" />
        </mxCell>
        <mxCell id="KTUMlyn5Q8RxVWPa-o7w-163" style="edgeStyle=orthogonalEdgeStyle;rounded=0;orthogonalLoop=1;jettySize=auto;html=1;entryX=0;entryY=0.5;entryDx=0;entryDy=0;startArrow=none;startFill=0;endArrow=none;endFill=0;fontColor=#000000;" edge="1" parent="1" source="KTUMlyn5Q8RxVWPa-o7w-104" target="KTUMlyn5Q8RxVWPa-o7w-100">
          <mxGeometry relative="1" as="geometry" />
        </mxCell>
        <mxCell id="KTUMlyn5Q8RxVWPa-o7w-104" value="nome_gruppo" style="ellipse;whiteSpace=wrap;html=1;align=center;" vertex="1" parent="1">
          <mxGeometry x="-180" y="100" width="100" height="40" as="geometry" />
        </mxCell>
        <mxCell id="KTUMlyn5Q8RxVWPa-o7w-106" style="edgeStyle=orthogonalEdgeStyle;rounded=0;orthogonalLoop=1;jettySize=auto;html=1;startArrow=none;startFill=0;endArrow=none;endFill=0;" edge="1" parent="1" source="KTUMlyn5Q8RxVWPa-o7w-105" target="KTUMlyn5Q8RxVWPa-o7w-100">
          <mxGeometry relative="1" as="geometry" />
        </mxCell>
        <mxCell id="KTUMlyn5Q8RxVWPa-o7w-105" value="ID_gruppo" style="ellipse;whiteSpace=wrap;html=1;align=center;fontStyle=4;" vertex="1" parent="1">
          <mxGeometry x="100" y="30" width="100" height="40" as="geometry" />
        </mxCell>
        <mxCell id="KTUMlyn5Q8RxVWPa-o7w-164" style="edgeStyle=orthogonalEdgeStyle;rounded=0;orthogonalLoop=1;jettySize=auto;html=1;entryX=0;entryY=0.5;entryDx=0;entryDy=0;startArrow=none;startFill=0;endArrow=none;endFill=0;fontColor=#000000;" edge="1" parent="1" source="KTUMlyn5Q8RxVWPa-o7w-108" target="KTUMlyn5Q8RxVWPa-o7w-100">
          <mxGeometry relative="1" as="geometry" />
        </mxCell>
        <mxCell id="KTUMlyn5Q8RxVWPa-o7w-108" value="anno_fondazione" style="ellipse;whiteSpace=wrap;html=1;align=center;" vertex="1" parent="1">
          <mxGeometry x="-180" y="180" width="100" height="40" as="geometry" />
        </mxCell>
        <mxCell id="KTUMlyn5Q8RxVWPa-o7w-111" style="edgeStyle=orthogonalEdgeStyle;rounded=0;orthogonalLoop=1;jettySize=auto;html=1;entryX=1;entryY=0.5;entryDx=0;entryDy=0;startArrow=none;startFill=0;endArrow=none;endFill=0;" edge="1" parent="1" source="KTUMlyn5Q8RxVWPa-o7w-110" target="KTUMlyn5Q8RxVWPa-o7w-100">
          <mxGeometry relative="1" as="geometry" />
        </mxCell>
        <mxCell id="KTUMlyn5Q8RxVWPa-o7w-112" style="edgeStyle=orthogonalEdgeStyle;rounded=0;orthogonalLoop=1;jettySize=auto;html=1;startArrow=none;startFill=0;endArrow=none;endFill=0;" edge="1" parent="1" target="KTUMlyn5Q8RxVWPa-o7w-101">
          <mxGeometry relative="1" as="geometry">
            <mxPoint x="390" y="140" as="sourcePoint" />
          </mxGeometry>
        </mxCell>
        <mxCell id="KTUMlyn5Q8RxVWPa-o7w-110" value="Pubblica" style="shape=rhombus;perimeter=rhombusPerimeter;whiteSpace=wrap;html=1;align=center;fillColor=#f5f5f5;strokeColor=#666666;fontColor=#333333;" vertex="1" parent="1">
          <mxGeometry x="280" y="110" width="120" height="60" as="geometry" />
        </mxCell>
        <mxCell id="KTUMlyn5Q8RxVWPa-o7w-113" value="1" style="text;html=1;align=center;verticalAlign=middle;whiteSpace=wrap;rounded=0;fontColor=#FF0000;" vertex="1" parent="1">
          <mxGeometry x="280" y="110" width="40" height="20" as="geometry" />
        </mxCell>
        <mxCell id="KTUMlyn5Q8RxVWPa-o7w-114" value="N" style="text;html=1;strokeColor=none;fillColor=none;align=center;verticalAlign=middle;whiteSpace=wrap;rounded=0;fontColor=#FF0000;" vertex="1" parent="1">
          <mxGeometry x="360" y="110" width="40" height="20" as="geometry" />
        </mxCell>
        <mxCell id="KTUMlyn5Q8RxVWPa-o7w-116" style="edgeStyle=orthogonalEdgeStyle;rounded=0;orthogonalLoop=1;jettySize=auto;html=1;entryX=0.5;entryY=0;entryDx=0;entryDy=0;startArrow=none;startFill=0;endArrow=none;endFill=0;fontColor=#FF0000;" edge="1" parent="1" source="KTUMlyn5Q8RxVWPa-o7w-115" target="KTUMlyn5Q8RxVWPa-o7w-101">
          <mxGeometry relative="1" as="geometry" />
        </mxCell>
        <mxCell id="KTUMlyn5Q8RxVWPa-o7w-115" value="ID_album" style="ellipse;whiteSpace=wrap;html=1;align=center;fontStyle=4;" vertex="1" parent="1">
          <mxGeometry x="475" y="30" width="100" height="40" as="geometry" />
        </mxCell>
        <mxCell id="KTUMlyn5Q8RxVWPa-o7w-119" style="edgeStyle=orthogonalEdgeStyle;rounded=0;orthogonalLoop=1;jettySize=auto;html=1;entryX=0.5;entryY=1;entryDx=0;entryDy=0;startArrow=none;startFill=0;endArrow=none;endFill=0;fontColor=#FF0000;" edge="1" parent="1" source="KTUMlyn5Q8RxVWPa-o7w-117" target="KTUMlyn5Q8RxVWPa-o7w-101">
          <mxGeometry relative="1" as="geometry" />
        </mxCell>
        <mxCell id="KTUMlyn5Q8RxVWPa-o7w-117" value="titolo" style="ellipse;whiteSpace=wrap;html=1;align=center;" vertex="1" parent="1">
          <mxGeometry x="410" y="210" width="100" height="40" as="geometry" />
        </mxCell>
        <mxCell id="KTUMlyn5Q8RxVWPa-o7w-155" style="edgeStyle=orthogonalEdgeStyle;rounded=0;orthogonalLoop=1;jettySize=auto;html=1;entryX=0.5;entryY=1;entryDx=0;entryDy=0;startArrow=none;startFill=0;endArrow=none;endFill=0;fontColor=#000000;" edge="1" parent="1" source="KTUMlyn5Q8RxVWPa-o7w-118" target="KTUMlyn5Q8RxVWPa-o7w-101">
          <mxGeometry relative="1" as="geometry" />
        </mxCell>
        <mxCell id="KTUMlyn5Q8RxVWPa-o7w-118" value="data_uscita" style="ellipse;whiteSpace=wrap;html=1;align=center;" vertex="1" parent="1">
          <mxGeometry x="520" y="210" width="100" height="40" as="geometry" />
        </mxCell>
        <mxCell id="KTUMlyn5Q8RxVWPa-o7w-159" style="edgeStyle=orthogonalEdgeStyle;rounded=0;orthogonalLoop=1;jettySize=auto;html=1;entryX=0;entryY=0.5;entryDx=0;entryDy=0;startArrow=none;startFill=0;endArrow=none;endFill=0;fontColor=#000000;" edge="1" parent="1" source="KTUMlyn5Q8RxVWPa-o7w-121" target="KTUMlyn5Q8RxVWPa-o7w-102">
          <mxGeometry relative="1" as="geometry" />
        </mxCell>
        <mxCell id="KTUMlyn5Q8RxVWPa-o7w-161" style="edgeStyle=orthogonalEdgeStyle;rounded=0;orthogonalLoop=1;jettySize=auto;html=1;entryX=1;entryY=1;entryDx=0;entryDy=0;startArrow=none;startFill=0;endArrow=none;endFill=0;fontColor=#000000;" edge="1" parent="1" source="KTUMlyn5Q8RxVWPa-o7w-121" target="KTUMlyn5Q8RxVWPa-o7w-100">
          <mxGeometry relative="1" as="geometry" />
        </mxCell>
        <mxCell id="KTUMlyn5Q8RxVWPa-o7w-121" value="Partecipa" style="shape=rhombus;perimeter=rhombusPerimeter;whiteSpace=wrap;html=1;align=center;fillColor=#f5f5f5;strokeColor=#666666;fontColor=#333333;" vertex="1" parent="1">
          <mxGeometry x="450" y="423" width="120" height="60" as="geometry" />
        </mxCell>
        <mxCell id="KTUMlyn5Q8RxVWPa-o7w-124" value="N" style="text;html=1;strokeColor=none;fillColor=none;align=center;verticalAlign=middle;whiteSpace=wrap;rounded=0;fontColor=#FF0000;" vertex="1" parent="1">
          <mxGeometry x="530" y="423" width="40" height="20" as="geometry" />
        </mxCell>
        <mxCell id="KTUMlyn5Q8RxVWPa-o7w-125" value="N" style="text;html=1;strokeColor=none;fillColor=none;align=center;verticalAlign=middle;whiteSpace=wrap;rounded=0;fontColor=#FF0000;" vertex="1" parent="1">
          <mxGeometry x="450" y="423" width="40" height="20" as="geometry" />
        </mxCell>
        <mxCell id="KTUMlyn5Q8RxVWPa-o7w-127" style="edgeStyle=orthogonalEdgeStyle;rounded=0;orthogonalLoop=1;jettySize=auto;html=1;startArrow=none;startFill=0;endArrow=none;endFill=0;fontColor=#FF0000;" edge="1" parent="1" source="KTUMlyn5Q8RxVWPa-o7w-126" target="KTUMlyn5Q8RxVWPa-o7w-102">
          <mxGeometry relative="1" as="geometry" />
        </mxCell>
        <mxCell id="KTUMlyn5Q8RxVWPa-o7w-126" value="ID_concerto" style="ellipse;whiteSpace=wrap;html=1;align=center;fontStyle=4;" vertex="1" parent="1">
          <mxGeometry x="710" y="560" width="100" height="40" as="geometry" />
        </mxCell>
        <mxCell id="KTUMlyn5Q8RxVWPa-o7w-158" style="edgeStyle=orthogonalEdgeStyle;rounded=0;orthogonalLoop=1;jettySize=auto;html=1;entryX=1;entryY=0.5;entryDx=0;entryDy=0;startArrow=none;startFill=0;endArrow=none;endFill=0;fontColor=#000000;" edge="1" parent="1" source="KTUMlyn5Q8RxVWPa-o7w-128" target="KTUMlyn5Q8RxVWPa-o7w-102">
          <mxGeometry relative="1" as="geometry" />
        </mxCell>
        <mxCell id="KTUMlyn5Q8RxVWPa-o7w-128" value="nome_concerto" style="ellipse;whiteSpace=wrap;html=1;align=center;" vertex="1" parent="1">
          <mxGeometry x="930" y="420" width="100" height="40" as="geometry" />
        </mxCell>
        <mxCell id="KTUMlyn5Q8RxVWPa-o7w-157" style="edgeStyle=orthogonalEdgeStyle;rounded=0;orthogonalLoop=1;jettySize=auto;html=1;entryX=1;entryY=0.5;entryDx=0;entryDy=0;startArrow=none;startFill=0;endArrow=none;endFill=0;fontColor=#000000;" edge="1" parent="1" source="KTUMlyn5Q8RxVWPa-o7w-129" target="KTUMlyn5Q8RxVWPa-o7w-102">
          <mxGeometry relative="1" as="geometry" />
        </mxCell>
        <mxCell id="KTUMlyn5Q8RxVWPa-o7w-129" value="luogo" style="ellipse;whiteSpace=wrap;html=1;align=center;" vertex="1" parent="1">
          <mxGeometry x="930" y="470" width="100" height="40" as="geometry" />
        </mxCell>
        <mxCell id="KTUMlyn5Q8RxVWPa-o7w-156" style="edgeStyle=orthogonalEdgeStyle;rounded=0;orthogonalLoop=1;jettySize=auto;html=1;entryX=1;entryY=0.5;entryDx=0;entryDy=0;startArrow=none;startFill=0;endArrow=none;endFill=0;fontColor=#000000;" edge="1" parent="1" source="KTUMlyn5Q8RxVWPa-o7w-130" target="KTUMlyn5Q8RxVWPa-o7w-102">
          <mxGeometry relative="1" as="geometry" />
        </mxCell>
        <mxCell id="KTUMlyn5Q8RxVWPa-o7w-130" value="data" style="ellipse;whiteSpace=wrap;html=1;align=center;" vertex="1" parent="1">
          <mxGeometry x="930" y="530" width="100" height="40" as="geometry" />
        </mxCell>
        <mxCell id="KTUMlyn5Q8RxVWPa-o7w-160" style="edgeStyle=orthogonalEdgeStyle;rounded=0;orthogonalLoop=1;jettySize=auto;html=1;entryX=0.5;entryY=1;entryDx=0;entryDy=0;startArrow=none;startFill=0;endArrow=none;endFill=0;fontColor=#000000;" edge="1" parent="1" source="KTUMlyn5Q8RxVWPa-o7w-136" target="KTUMlyn5Q8RxVWPa-o7w-121">
          <mxGeometry relative="1" as="geometry" />
        </mxCell>
        <mxCell id="KTUMlyn5Q8RxVWPa-o7w-136" value="canzoni_concerto" style="ellipse;shape=doubleEllipse;margin=3;whiteSpace=wrap;html=1;align=center;" vertex="1" parent="1">
          <mxGeometry x="455" y="537" width="110" height="43" as="geometry" />
        </mxCell>
        <mxCell id="KTUMlyn5Q8RxVWPa-o7w-172" style="edgeStyle=orthogonalEdgeStyle;rounded=0;orthogonalLoop=1;jettySize=auto;html=1;entryX=1;entryY=0.5;entryDx=0;entryDy=0;startArrow=none;startFill=0;endArrow=none;endFill=0;fontColor=#000000;" edge="1" parent="1" source="KTUMlyn5Q8RxVWPa-o7w-138" target="KTUMlyn5Q8RxVWPa-o7w-103">
          <mxGeometry relative="1" as="geometry" />
        </mxCell>
        <mxCell id="KTUMlyn5Q8RxVWPa-o7w-138" value="ID_artista" style="ellipse;whiteSpace=wrap;html=1;align=center;fontStyle=4;" vertex="1" parent="1">
          <mxGeometry x="280" y="493" width="100" height="40" as="geometry" />
        </mxCell>
        <mxCell id="KTUMlyn5Q8RxVWPa-o7w-168" style="edgeStyle=orthogonalEdgeStyle;rounded=0;orthogonalLoop=1;jettySize=auto;html=1;entryX=0;entryY=0.5;entryDx=0;entryDy=0;startArrow=none;startFill=0;endArrow=none;endFill=0;fontColor=#000000;" edge="1" parent="1" source="KTUMlyn5Q8RxVWPa-o7w-140" target="KTUMlyn5Q8RxVWPa-o7w-103">
          <mxGeometry relative="1" as="geometry" />
        </mxCell>
        <mxCell id="KTUMlyn5Q8RxVWPa-o7w-140" value="nome_artista" style="ellipse;whiteSpace=wrap;html=1;align=center;" vertex="1" parent="1">
          <mxGeometry x="-140" y="493" width="100" height="40" as="geometry" />
        </mxCell>
        <mxCell id="KTUMlyn5Q8RxVWPa-o7w-169" style="edgeStyle=orthogonalEdgeStyle;rounded=0;orthogonalLoop=1;jettySize=auto;html=1;entryX=0;entryY=0.5;entryDx=0;entryDy=0;startArrow=none;startFill=0;endArrow=none;endFill=0;fontColor=#000000;" edge="1" parent="1" source="KTUMlyn5Q8RxVWPa-o7w-141" target="KTUMlyn5Q8RxVWPa-o7w-103">
          <mxGeometry relative="1" as="geometry" />
        </mxCell>
        <mxCell id="KTUMlyn5Q8RxVWPa-o7w-141" value="nazionalita" style="ellipse;whiteSpace=wrap;html=1;align=center;" vertex="1" parent="1">
          <mxGeometry x="-140" y="553" width="100" height="40" as="geometry" />
        </mxCell>
        <mxCell id="KTUMlyn5Q8RxVWPa-o7w-167" style="edgeStyle=orthogonalEdgeStyle;rounded=0;orthogonalLoop=1;jettySize=auto;html=1;entryX=0;entryY=0.5;entryDx=0;entryDy=0;startArrow=none;startFill=0;endArrow=none;endFill=0;fontColor=#000000;" edge="1" parent="1" source="KTUMlyn5Q8RxVWPa-o7w-142" target="KTUMlyn5Q8RxVWPa-o7w-103">
          <mxGeometry relative="1" as="geometry" />
        </mxCell>
        <mxCell id="KTUMlyn5Q8RxVWPa-o7w-142" value="anno_nascita" style="ellipse;whiteSpace=wrap;html=1;align=center;" vertex="1" parent="1">
          <mxGeometry x="-140" y="433" width="100" height="40" as="geometry" />
        </mxCell>
        <mxCell id="KTUMlyn5Q8RxVWPa-o7w-171" style="edgeStyle=orthogonalEdgeStyle;rounded=0;orthogonalLoop=1;jettySize=auto;html=1;entryX=0.5;entryY=1;entryDx=0;entryDy=0;startArrow=none;startFill=0;endArrow=none;endFill=0;fontColor=#000000;" edge="1" parent="1" source="KTUMlyn5Q8RxVWPa-o7w-147" target="KTUMlyn5Q8RxVWPa-o7w-103">
          <mxGeometry relative="1" as="geometry" />
        </mxCell>
        <mxCell id="KTUMlyn5Q8RxVWPa-o7w-147" value="strumento" style="ellipse;whiteSpace=wrap;html=1;align=center;" vertex="1" parent="1">
          <mxGeometry x="70" y="650" width="100" height="40" as="geometry" />
        </mxCell>
        <mxCell id="KTUMlyn5Q8RxVWPa-o7w-170" style="edgeStyle=orthogonalEdgeStyle;rounded=0;orthogonalLoop=1;jettySize=auto;html=1;entryX=0.5;entryY=1;entryDx=0;entryDy=0;startArrow=none;startFill=0;endArrow=none;endFill=0;fontColor=#000000;" edge="1" parent="1" source="KTUMlyn5Q8RxVWPa-o7w-149" target="KTUMlyn5Q8RxVWPa-o7w-103">
          <mxGeometry relative="1" as="geometry" />
        </mxCell>
        <mxCell id="KTUMlyn5Q8RxVWPa-o7w-149" value="canzoni_incise" style="ellipse;shape=doubleEllipse;margin=3;whiteSpace=wrap;html=1;align=center;" vertex="1" parent="1">
          <mxGeometry x="190" y="650" width="100" height="40" as="geometry" />
        </mxCell>
        <mxCell id="KTUMlyn5Q8RxVWPa-o7w-165" style="edgeStyle=orthogonalEdgeStyle;rounded=0;orthogonalLoop=1;jettySize=auto;html=1;entryX=0.55;entryY=1.013;entryDx=0;entryDy=0;entryPerimeter=0;startArrow=none;startFill=0;endArrow=none;endFill=0;fontColor=#000000;" edge="1" parent="1" source="KTUMlyn5Q8RxVWPa-o7w-152" target="KTUMlyn5Q8RxVWPa-o7w-100">
          <mxGeometry relative="1" as="geometry" />
        </mxCell>
        <mxCell id="KTUMlyn5Q8RxVWPa-o7w-152" value="Appartiene" style="shape=rhombus;perimeter=rhombusPerimeter;whiteSpace=wrap;html=1;align=center;fillColor=#f5f5f5;strokeColor=#666666;fontColor=#333333;" vertex="1" parent="1">
          <mxGeometry x="30" y="270" width="120" height="60" as="geometry" />
        </mxCell>
        <mxCell id="KTUMlyn5Q8RxVWPa-o7w-173" value="Gruppo_Musicale" style="shape=table;startSize=30;container=1;collapsible=1;childLayout=tableLayout;fixedRows=1;rowLines=0;fontStyle=1;align=center;resizeLast=1;fontColor=#000000;" vertex="1" parent="1">
          <mxGeometry x="-1120" y="40" width="180" height="130" as="geometry" />
        </mxCell>
        <mxCell id="KTUMlyn5Q8RxVWPa-o7w-174" value="" style="shape=partialRectangle;collapsible=0;dropTarget=0;pointerEvents=0;fillColor=none;top=0;left=0;bottom=1;right=0;points=[[0,0.5],[1,0.5]];portConstraint=eastwest;" vertex="1" parent="KTUMlyn5Q8RxVWPa-o7w-173">
          <mxGeometry y="30" width="180" height="30" as="geometry" />
        </mxCell>
        <mxCell id="KTUMlyn5Q8RxVWPa-o7w-175" value="PK" style="shape=partialRectangle;connectable=0;fillColor=none;top=0;left=0;bottom=0;right=0;fontStyle=1;overflow=hidden;" vertex="1" parent="KTUMlyn5Q8RxVWPa-o7w-174">
          <mxGeometry width="30" height="30" as="geometry" />
        </mxCell>
        <mxCell id="KTUMlyn5Q8RxVWPa-o7w-176" value="ID_gruppo" style="shape=partialRectangle;connectable=0;fillColor=none;top=0;left=0;bottom=0;right=0;align=left;spacingLeft=6;fontStyle=5;overflow=hidden;" vertex="1" parent="KTUMlyn5Q8RxVWPa-o7w-174">
          <mxGeometry x="30" width="150" height="30" as="geometry" />
        </mxCell>
        <mxCell id="KTUMlyn5Q8RxVWPa-o7w-177" value="" style="shape=partialRectangle;collapsible=0;dropTarget=0;pointerEvents=0;fillColor=none;top=0;left=0;bottom=0;right=0;points=[[0,0.5],[1,0.5]];portConstraint=eastwest;" vertex="1" parent="KTUMlyn5Q8RxVWPa-o7w-173">
          <mxGeometry y="60" width="180" height="30" as="geometry" />
        </mxCell>
        <mxCell id="KTUMlyn5Q8RxVWPa-o7w-178" value="" style="shape=partialRectangle;connectable=0;fillColor=none;top=0;left=0;bottom=0;right=0;editable=1;overflow=hidden;" vertex="1" parent="KTUMlyn5Q8RxVWPa-o7w-177">
          <mxGeometry width="30" height="30" as="geometry" />
        </mxCell>
        <mxCell id="KTUMlyn5Q8RxVWPa-o7w-179" value="nome_gruppo" style="shape=partialRectangle;connectable=0;fillColor=none;top=0;left=0;bottom=0;right=0;align=left;spacingLeft=6;overflow=hidden;" vertex="1" parent="KTUMlyn5Q8RxVWPa-o7w-177">
          <mxGeometry x="30" width="150" height="30" as="geometry" />
        </mxCell>
        <mxCell id="KTUMlyn5Q8RxVWPa-o7w-180" value="" style="shape=partialRectangle;collapsible=0;dropTarget=0;pointerEvents=0;fillColor=none;top=0;left=0;bottom=0;right=0;points=[[0,0.5],[1,0.5]];portConstraint=eastwest;" vertex="1" parent="KTUMlyn5Q8RxVWPa-o7w-173">
          <mxGeometry y="90" width="180" height="30" as="geometry" />
        </mxCell>
        <mxCell id="KTUMlyn5Q8RxVWPa-o7w-181" value="" style="shape=partialRectangle;connectable=0;fillColor=none;top=0;left=0;bottom=0;right=0;editable=1;overflow=hidden;" vertex="1" parent="KTUMlyn5Q8RxVWPa-o7w-180">
          <mxGeometry width="30" height="30" as="geometry" />
        </mxCell>
        <mxCell id="KTUMlyn5Q8RxVWPa-o7w-182" value="anno_fondazione" style="shape=partialRectangle;connectable=0;fillColor=none;top=0;left=0;bottom=0;right=0;align=left;spacingLeft=6;overflow=hidden;" vertex="1" parent="KTUMlyn5Q8RxVWPa-o7w-180">
          <mxGeometry x="30" width="150" height="30" as="geometry" />
        </mxCell>
        <mxCell id="KTUMlyn5Q8RxVWPa-o7w-186" value="Album" style="shape=table;startSize=30;container=1;collapsible=1;childLayout=tableLayout;fixedRows=1;rowLines=0;fontStyle=1;align=center;resizeLast=1;fontColor=#000000;" vertex="1" parent="1">
          <mxGeometry x="-660" y="30" width="180" height="160" as="geometry" />
        </mxCell>
        <mxCell id="KTUMlyn5Q8RxVWPa-o7w-187" value="" style="shape=partialRectangle;collapsible=0;dropTarget=0;pointerEvents=0;fillColor=none;top=0;left=0;bottom=1;right=0;points=[[0,0.5],[1,0.5]];portConstraint=eastwest;" vertex="1" parent="KTUMlyn5Q8RxVWPa-o7w-186">
          <mxGeometry y="30" width="180" height="30" as="geometry" />
        </mxCell>
        <mxCell id="KTUMlyn5Q8RxVWPa-o7w-188" value="PK" style="shape=partialRectangle;connectable=0;fillColor=none;top=0;left=0;bottom=0;right=0;fontStyle=1;overflow=hidden;" vertex="1" parent="KTUMlyn5Q8RxVWPa-o7w-187">
          <mxGeometry width="30" height="30" as="geometry" />
        </mxCell>
        <mxCell id="KTUMlyn5Q8RxVWPa-o7w-189" value="ID_album" style="shape=partialRectangle;connectable=0;fillColor=none;top=0;left=0;bottom=0;right=0;align=left;spacingLeft=6;fontStyle=5;overflow=hidden;" vertex="1" parent="KTUMlyn5Q8RxVWPa-o7w-187">
          <mxGeometry x="30" width="150" height="30" as="geometry" />
        </mxCell>
        <mxCell id="KTUMlyn5Q8RxVWPa-o7w-190" value="" style="shape=partialRectangle;collapsible=0;dropTarget=0;pointerEvents=0;fillColor=none;top=0;left=0;bottom=0;right=0;points=[[0,0.5],[1,0.5]];portConstraint=eastwest;" vertex="1" parent="KTUMlyn5Q8RxVWPa-o7w-186">
          <mxGeometry y="60" width="180" height="30" as="geometry" />
        </mxCell>
        <mxCell id="KTUMlyn5Q8RxVWPa-o7w-191" value="" style="shape=partialRectangle;connectable=0;fillColor=none;top=0;left=0;bottom=0;right=0;editable=1;overflow=hidden;" vertex="1" parent="KTUMlyn5Q8RxVWPa-o7w-190">
          <mxGeometry width="30" height="30" as="geometry" />
        </mxCell>
        <mxCell id="KTUMlyn5Q8RxVWPa-o7w-192" value="titolo" style="shape=partialRectangle;connectable=0;fillColor=none;top=0;left=0;bottom=0;right=0;align=left;spacingLeft=6;overflow=hidden;" vertex="1" parent="KTUMlyn5Q8RxVWPa-o7w-190">
          <mxGeometry x="30" width="150" height="30" as="geometry" />
        </mxCell>
        <mxCell id="KTUMlyn5Q8RxVWPa-o7w-193" value="" style="shape=partialRectangle;collapsible=0;dropTarget=0;pointerEvents=0;fillColor=none;top=0;left=0;bottom=0;right=0;points=[[0,0.5],[1,0.5]];portConstraint=eastwest;" vertex="1" parent="KTUMlyn5Q8RxVWPa-o7w-186">
          <mxGeometry y="90" width="180" height="30" as="geometry" />
        </mxCell>
        <mxCell id="KTUMlyn5Q8RxVWPa-o7w-194" value="" style="shape=partialRectangle;connectable=0;fillColor=none;top=0;left=0;bottom=0;right=0;editable=1;overflow=hidden;" vertex="1" parent="KTUMlyn5Q8RxVWPa-o7w-193">
          <mxGeometry width="30" height="30" as="geometry" />
        </mxCell>
        <mxCell id="KTUMlyn5Q8RxVWPa-o7w-195" value="data_uscita" style="shape=partialRectangle;connectable=0;fillColor=none;top=0;left=0;bottom=0;right=0;align=left;spacingLeft=6;overflow=hidden;" vertex="1" parent="KTUMlyn5Q8RxVWPa-o7w-193">
          <mxGeometry x="30" width="150" height="30" as="geometry" />
        </mxCell>
        <mxCell id="KTUMlyn5Q8RxVWPa-o7w-196" style="shape=partialRectangle;collapsible=0;dropTarget=0;pointerEvents=0;fillColor=none;top=0;left=0;bottom=0;right=0;points=[[0,0.5],[1,0.5]];portConstraint=eastwest;" vertex="1" parent="KTUMlyn5Q8RxVWPa-o7w-186">
          <mxGeometry y="120" width="180" height="30" as="geometry" />
        </mxCell>
        <mxCell id="KTUMlyn5Q8RxVWPa-o7w-197" value="FK" style="shape=partialRectangle;connectable=0;fillColor=none;top=0;left=0;bottom=0;right=0;editable=1;overflow=hidden;" vertex="1" parent="KTUMlyn5Q8RxVWPa-o7w-196">
          <mxGeometry width="30" height="30" as="geometry" />
        </mxCell>
        <mxCell id="KTUMlyn5Q8RxVWPa-o7w-198" value="ID_gruppo" style="shape=partialRectangle;connectable=0;fillColor=none;top=0;left=0;bottom=0;right=0;align=left;spacingLeft=6;overflow=hidden;" vertex="1" parent="KTUMlyn5Q8RxVWPa-o7w-196">
          <mxGeometry x="30" width="150" height="30" as="geometry" />
        </mxCell>
        <mxCell id="KTUMlyn5Q8RxVWPa-o7w-209" value="Artisti" style="shape=table;startSize=30;container=1;collapsible=1;childLayout=tableLayout;fixedRows=1;rowLines=0;fontStyle=1;align=center;resizeLast=1;fontColor=#000000;" vertex="1" parent="1">
          <mxGeometry x="-820" y="240" width="180" height="220" as="geometry" />
        </mxCell>
        <mxCell id="KTUMlyn5Q8RxVWPa-o7w-210" value="" style="shape=partialRectangle;collapsible=0;dropTarget=0;pointerEvents=0;fillColor=none;top=0;left=0;bottom=1;right=0;points=[[0,0.5],[1,0.5]];portConstraint=eastwest;" vertex="1" parent="KTUMlyn5Q8RxVWPa-o7w-209">
          <mxGeometry y="30" width="180" height="30" as="geometry" />
        </mxCell>
        <mxCell id="KTUMlyn5Q8RxVWPa-o7w-211" value="PK" style="shape=partialRectangle;connectable=0;fillColor=none;top=0;left=0;bottom=0;right=0;fontStyle=1;overflow=hidden;" vertex="1" parent="KTUMlyn5Q8RxVWPa-o7w-210">
          <mxGeometry width="30" height="30" as="geometry" />
        </mxCell>
        <mxCell id="KTUMlyn5Q8RxVWPa-o7w-212" value="ID_artista" style="shape=partialRectangle;connectable=0;fillColor=none;top=0;left=0;bottom=0;right=0;align=left;spacingLeft=6;fontStyle=5;overflow=hidden;" vertex="1" parent="KTUMlyn5Q8RxVWPa-o7w-210">
          <mxGeometry x="30" width="150" height="30" as="geometry" />
        </mxCell>
        <mxCell id="KTUMlyn5Q8RxVWPa-o7w-213" value="" style="shape=partialRectangle;collapsible=0;dropTarget=0;pointerEvents=0;fillColor=none;top=0;left=0;bottom=0;right=0;points=[[0,0.5],[1,0.5]];portConstraint=eastwest;" vertex="1" parent="KTUMlyn5Q8RxVWPa-o7w-209">
          <mxGeometry y="60" width="180" height="30" as="geometry" />
        </mxCell>
        <mxCell id="KTUMlyn5Q8RxVWPa-o7w-214" value="" style="shape=partialRectangle;connectable=0;fillColor=none;top=0;left=0;bottom=0;right=0;editable=1;overflow=hidden;" vertex="1" parent="KTUMlyn5Q8RxVWPa-o7w-213">
          <mxGeometry width="30" height="30" as="geometry" />
        </mxCell>
        <mxCell id="KTUMlyn5Q8RxVWPa-o7w-215" value="nome_artista" style="shape=partialRectangle;connectable=0;fillColor=none;top=0;left=0;bottom=0;right=0;align=left;spacingLeft=6;overflow=hidden;" vertex="1" parent="KTUMlyn5Q8RxVWPa-o7w-213">
          <mxGeometry x="30" width="150" height="30" as="geometry" />
        </mxCell>
        <mxCell id="KTUMlyn5Q8RxVWPa-o7w-216" value="" style="shape=partialRectangle;collapsible=0;dropTarget=0;pointerEvents=0;fillColor=none;top=0;left=0;bottom=0;right=0;points=[[0,0.5],[1,0.5]];portConstraint=eastwest;" vertex="1" parent="KTUMlyn5Q8RxVWPa-o7w-209">
          <mxGeometry y="90" width="180" height="30" as="geometry" />
        </mxCell>
        <mxCell id="KTUMlyn5Q8RxVWPa-o7w-217" value="" style="shape=partialRectangle;connectable=0;fillColor=none;top=0;left=0;bottom=0;right=0;editable=1;overflow=hidden;" vertex="1" parent="KTUMlyn5Q8RxVWPa-o7w-216">
          <mxGeometry width="30" height="30" as="geometry" />
        </mxCell>
        <mxCell id="KTUMlyn5Q8RxVWPa-o7w-218" value="cognome_artista" style="shape=partialRectangle;connectable=0;fillColor=none;top=0;left=0;bottom=0;right=0;align=left;spacingLeft=6;overflow=hidden;" vertex="1" parent="KTUMlyn5Q8RxVWPa-o7w-216">
          <mxGeometry x="30" width="150" height="30" as="geometry" />
        </mxCell>
        <mxCell id="KTUMlyn5Q8RxVWPa-o7w-219" style="shape=partialRectangle;collapsible=0;dropTarget=0;pointerEvents=0;fillColor=none;top=0;left=0;bottom=0;right=0;points=[[0,0.5],[1,0.5]];portConstraint=eastwest;" vertex="1" parent="KTUMlyn5Q8RxVWPa-o7w-209">
          <mxGeometry y="120" width="180" height="30" as="geometry" />
        </mxCell>
        <mxCell id="KTUMlyn5Q8RxVWPa-o7w-220" style="shape=partialRectangle;connectable=0;fillColor=none;top=0;left=0;bottom=0;right=0;editable=1;overflow=hidden;" vertex="1" parent="KTUMlyn5Q8RxVWPa-o7w-219">
          <mxGeometry width="30" height="30" as="geometry" />
        </mxCell>
        <mxCell id="KTUMlyn5Q8RxVWPa-o7w-221" value="nazionalita" style="shape=partialRectangle;connectable=0;fillColor=none;top=0;left=0;bottom=0;right=0;align=left;spacingLeft=6;overflow=hidden;" vertex="1" parent="KTUMlyn5Q8RxVWPa-o7w-219">
          <mxGeometry x="30" width="150" height="30" as="geometry" />
        </mxCell>
        <mxCell id="KTUMlyn5Q8RxVWPa-o7w-222" style="shape=partialRectangle;collapsible=0;dropTarget=0;pointerEvents=0;fillColor=none;top=0;left=0;bottom=0;right=0;points=[[0,0.5],[1,0.5]];portConstraint=eastwest;" vertex="1" parent="KTUMlyn5Q8RxVWPa-o7w-209">
          <mxGeometry y="150" width="180" height="30" as="geometry" />
        </mxCell>
        <mxCell id="KTUMlyn5Q8RxVWPa-o7w-223" style="shape=partialRectangle;connectable=0;fillColor=none;top=0;left=0;bottom=0;right=0;editable=1;overflow=hidden;" vertex="1" parent="KTUMlyn5Q8RxVWPa-o7w-222">
          <mxGeometry width="30" height="30" as="geometry" />
        </mxCell>
        <mxCell id="KTUMlyn5Q8RxVWPa-o7w-224" value="strumento" style="shape=partialRectangle;connectable=0;fillColor=none;top=0;left=0;bottom=0;right=0;align=left;spacingLeft=6;overflow=hidden;" vertex="1" parent="KTUMlyn5Q8RxVWPa-o7w-222">
          <mxGeometry x="30" width="150" height="30" as="geometry" />
        </mxCell>
        <mxCell id="KTUMlyn5Q8RxVWPa-o7w-225" style="shape=partialRectangle;collapsible=0;dropTarget=0;pointerEvents=0;fillColor=none;top=0;left=0;bottom=0;right=0;points=[[0,0.5],[1,0.5]];portConstraint=eastwest;" vertex="1" parent="KTUMlyn5Q8RxVWPa-o7w-209">
          <mxGeometry y="180" width="180" height="30" as="geometry" />
        </mxCell>
        <mxCell id="KTUMlyn5Q8RxVWPa-o7w-226" value="FK" style="shape=partialRectangle;connectable=0;fillColor=none;top=0;left=0;bottom=0;right=0;editable=1;overflow=hidden;" vertex="1" parent="KTUMlyn5Q8RxVWPa-o7w-225">
          <mxGeometry width="30" height="30" as="geometry" />
        </mxCell>
        <mxCell id="KTUMlyn5Q8RxVWPa-o7w-227" value="ID_gruppo" style="shape=partialRectangle;connectable=0;fillColor=none;top=0;left=0;bottom=0;right=0;align=left;spacingLeft=6;overflow=hidden;" vertex="1" parent="KTUMlyn5Q8RxVWPa-o7w-225">
          <mxGeometry x="30" width="150" height="30" as="geometry" />
        </mxCell>
        <mxCell id="KTUMlyn5Q8RxVWPa-o7w-228" value="Canzoni_incise" style="shape=table;startSize=30;container=1;collapsible=1;childLayout=tableLayout;fixedRows=1;rowLines=0;fontStyle=1;align=center;resizeLast=1;fontColor=#000000;" vertex="1" parent="1">
          <mxGeometry x="-530" y="210" width="180" height="160" as="geometry" />
        </mxCell>
        <mxCell id="KTUMlyn5Q8RxVWPa-o7w-229" value="" style="shape=partialRectangle;collapsible=0;dropTarget=0;pointerEvents=0;fillColor=none;top=0;left=0;bottom=1;right=0;points=[[0,0.5],[1,0.5]];portConstraint=eastwest;" vertex="1" parent="KTUMlyn5Q8RxVWPa-o7w-228">
          <mxGeometry y="30" width="180" height="30" as="geometry" />
        </mxCell>
        <mxCell id="KTUMlyn5Q8RxVWPa-o7w-230" value="PK" style="shape=partialRectangle;connectable=0;fillColor=none;top=0;left=0;bottom=0;right=0;fontStyle=1;overflow=hidden;" vertex="1" parent="KTUMlyn5Q8RxVWPa-o7w-229">
          <mxGeometry width="30" height="30" as="geometry" />
        </mxCell>
        <mxCell id="KTUMlyn5Q8RxVWPa-o7w-231" value="ID_canzone_incisa" style="shape=partialRectangle;connectable=0;fillColor=none;top=0;left=0;bottom=0;right=0;align=left;spacingLeft=6;fontStyle=5;overflow=hidden;" vertex="1" parent="KTUMlyn5Q8RxVWPa-o7w-229">
          <mxGeometry x="30" width="150" height="30" as="geometry" />
        </mxCell>
        <mxCell id="KTUMlyn5Q8RxVWPa-o7w-232" value="" style="shape=partialRectangle;collapsible=0;dropTarget=0;pointerEvents=0;fillColor=none;top=0;left=0;bottom=0;right=0;points=[[0,0.5],[1,0.5]];portConstraint=eastwest;" vertex="1" parent="KTUMlyn5Q8RxVWPa-o7w-228">
          <mxGeometry y="60" width="180" height="30" as="geometry" />
        </mxCell>
        <mxCell id="KTUMlyn5Q8RxVWPa-o7w-233" value="FK" style="shape=partialRectangle;connectable=0;fillColor=none;top=0;left=0;bottom=0;right=0;editable=1;overflow=hidden;" vertex="1" parent="KTUMlyn5Q8RxVWPa-o7w-232">
          <mxGeometry width="30" height="30" as="geometry" />
        </mxCell>
        <mxCell id="KTUMlyn5Q8RxVWPa-o7w-234" value="ID_artista" style="shape=partialRectangle;connectable=0;fillColor=none;top=0;left=0;bottom=0;right=0;align=left;spacingLeft=6;overflow=hidden;" vertex="1" parent="KTUMlyn5Q8RxVWPa-o7w-232">
          <mxGeometry x="30" width="150" height="30" as="geometry" />
        </mxCell>
        <mxCell id="KTUMlyn5Q8RxVWPa-o7w-235" value="" style="shape=partialRectangle;collapsible=0;dropTarget=0;pointerEvents=0;fillColor=none;top=0;left=0;bottom=0;right=0;points=[[0,0.5],[1,0.5]];portConstraint=eastwest;" vertex="1" parent="KTUMlyn5Q8RxVWPa-o7w-228">
          <mxGeometry y="90" width="180" height="30" as="geometry" />
        </mxCell>
        <mxCell id="KTUMlyn5Q8RxVWPa-o7w-236" value="FK" style="shape=partialRectangle;connectable=0;fillColor=none;top=0;left=0;bottom=0;right=0;editable=1;overflow=hidden;" vertex="1" parent="KTUMlyn5Q8RxVWPa-o7w-235">
          <mxGeometry width="30" height="30" as="geometry" />
        </mxCell>
        <mxCell id="KTUMlyn5Q8RxVWPa-o7w-237" value="ID_gruppo" style="shape=partialRectangle;connectable=0;fillColor=none;top=0;left=0;bottom=0;right=0;align=left;spacingLeft=6;overflow=hidden;" vertex="1" parent="KTUMlyn5Q8RxVWPa-o7w-235">
          <mxGeometry x="30" width="150" height="30" as="geometry" />
        </mxCell>
        <mxCell id="KTUMlyn5Q8RxVWPa-o7w-238" style="shape=partialRectangle;collapsible=0;dropTarget=0;pointerEvents=0;fillColor=none;top=0;left=0;bottom=0;right=0;points=[[0,0.5],[1,0.5]];portConstraint=eastwest;" vertex="1" parent="KTUMlyn5Q8RxVWPa-o7w-228">
          <mxGeometry y="120" width="180" height="30" as="geometry" />
        </mxCell>
        <mxCell id="KTUMlyn5Q8RxVWPa-o7w-239" style="shape=partialRectangle;connectable=0;fillColor=none;top=0;left=0;bottom=0;right=0;editable=1;overflow=hidden;" vertex="1" parent="KTUMlyn5Q8RxVWPa-o7w-238">
          <mxGeometry width="30" height="30" as="geometry" />
        </mxCell>
        <mxCell id="KTUMlyn5Q8RxVWPa-o7w-240" value="nome_canzone" style="shape=partialRectangle;connectable=0;fillColor=none;top=0;left=0;bottom=0;right=0;align=left;spacingLeft=6;overflow=hidden;" vertex="1" parent="KTUMlyn5Q8RxVWPa-o7w-238">
          <mxGeometry x="30" width="150" height="30" as="geometry" />
        </mxCell>
        <mxCell id="KTUMlyn5Q8RxVWPa-o7w-247" value="Concerti" style="shape=table;startSize=30;container=1;collapsible=1;childLayout=tableLayout;fixedRows=1;rowLines=0;fontStyle=1;align=center;resizeLast=1;fontColor=#000000;" vertex="1" parent="1">
          <mxGeometry x="-1110" y="590" width="180" height="160" as="geometry" />
        </mxCell>
        <mxCell id="KTUMlyn5Q8RxVWPa-o7w-248" value="" style="shape=partialRectangle;collapsible=0;dropTarget=0;pointerEvents=0;fillColor=none;top=0;left=0;bottom=1;right=0;points=[[0,0.5],[1,0.5]];portConstraint=eastwest;" vertex="1" parent="KTUMlyn5Q8RxVWPa-o7w-247">
          <mxGeometry y="30" width="180" height="30" as="geometry" />
        </mxCell>
        <mxCell id="KTUMlyn5Q8RxVWPa-o7w-249" value="PK" style="shape=partialRectangle;connectable=0;fillColor=none;top=0;left=0;bottom=0;right=0;fontStyle=1;overflow=hidden;" vertex="1" parent="KTUMlyn5Q8RxVWPa-o7w-248">
          <mxGeometry width="30" height="30" as="geometry" />
        </mxCell>
        <mxCell id="KTUMlyn5Q8RxVWPa-o7w-250" value="ID_concerti" style="shape=partialRectangle;connectable=0;fillColor=none;top=0;left=0;bottom=0;right=0;align=left;spacingLeft=6;fontStyle=5;overflow=hidden;" vertex="1" parent="KTUMlyn5Q8RxVWPa-o7w-248">
          <mxGeometry x="30" width="150" height="30" as="geometry" />
        </mxCell>
        <mxCell id="KTUMlyn5Q8RxVWPa-o7w-251" value="" style="shape=partialRectangle;collapsible=0;dropTarget=0;pointerEvents=0;fillColor=none;top=0;left=0;bottom=0;right=0;points=[[0,0.5],[1,0.5]];portConstraint=eastwest;" vertex="1" parent="KTUMlyn5Q8RxVWPa-o7w-247">
          <mxGeometry y="60" width="180" height="30" as="geometry" />
        </mxCell>
        <mxCell id="KTUMlyn5Q8RxVWPa-o7w-252" value="" style="shape=partialRectangle;connectable=0;fillColor=none;top=0;left=0;bottom=0;right=0;editable=1;overflow=hidden;" vertex="1" parent="KTUMlyn5Q8RxVWPa-o7w-251">
          <mxGeometry width="30" height="30" as="geometry" />
        </mxCell>
        <mxCell id="KTUMlyn5Q8RxVWPa-o7w-253" value="nome_concerto" style="shape=partialRectangle;connectable=0;fillColor=none;top=0;left=0;bottom=0;right=0;align=left;spacingLeft=6;overflow=hidden;" vertex="1" parent="KTUMlyn5Q8RxVWPa-o7w-251">
          <mxGeometry x="30" width="150" height="30" as="geometry" />
        </mxCell>
        <mxCell id="KTUMlyn5Q8RxVWPa-o7w-254" value="" style="shape=partialRectangle;collapsible=0;dropTarget=0;pointerEvents=0;fillColor=none;top=0;left=0;bottom=0;right=0;points=[[0,0.5],[1,0.5]];portConstraint=eastwest;" vertex="1" parent="KTUMlyn5Q8RxVWPa-o7w-247">
          <mxGeometry y="90" width="180" height="30" as="geometry" />
        </mxCell>
        <mxCell id="KTUMlyn5Q8RxVWPa-o7w-255" value="" style="shape=partialRectangle;connectable=0;fillColor=none;top=0;left=0;bottom=0;right=0;editable=1;overflow=hidden;" vertex="1" parent="KTUMlyn5Q8RxVWPa-o7w-254">
          <mxGeometry width="30" height="30" as="geometry" />
        </mxCell>
        <mxCell id="KTUMlyn5Q8RxVWPa-o7w-256" value="data" style="shape=partialRectangle;connectable=0;fillColor=none;top=0;left=0;bottom=0;right=0;align=left;spacingLeft=6;overflow=hidden;" vertex="1" parent="KTUMlyn5Q8RxVWPa-o7w-254">
          <mxGeometry x="30" width="150" height="30" as="geometry" />
        </mxCell>
        <mxCell id="KTUMlyn5Q8RxVWPa-o7w-257" style="shape=partialRectangle;collapsible=0;dropTarget=0;pointerEvents=0;fillColor=none;top=0;left=0;bottom=0;right=0;points=[[0,0.5],[1,0.5]];portConstraint=eastwest;" vertex="1" parent="KTUMlyn5Q8RxVWPa-o7w-247">
          <mxGeometry y="120" width="180" height="30" as="geometry" />
        </mxCell>
        <mxCell id="KTUMlyn5Q8RxVWPa-o7w-258" style="shape=partialRectangle;connectable=0;fillColor=none;top=0;left=0;bottom=0;right=0;editable=1;overflow=hidden;" vertex="1" parent="KTUMlyn5Q8RxVWPa-o7w-257">
          <mxGeometry width="30" height="30" as="geometry" />
        </mxCell>
        <mxCell id="KTUMlyn5Q8RxVWPa-o7w-259" value="luogo" style="shape=partialRectangle;connectable=0;fillColor=none;top=0;left=0;bottom=0;right=0;align=left;spacingLeft=6;overflow=hidden;" vertex="1" parent="KTUMlyn5Q8RxVWPa-o7w-257">
          <mxGeometry x="30" width="150" height="30" as="geometry" />
        </mxCell>
        <mxCell id="KTUMlyn5Q8RxVWPa-o7w-260" value="1" style="text;html=1;align=center;verticalAlign=middle;whiteSpace=wrap;rounded=0;fontColor=#FF0000;" vertex="1" parent="1">
          <mxGeometry x="120" y="270" width="40" height="20" as="geometry" />
        </mxCell>
        <mxCell id="KTUMlyn5Q8RxVWPa-o7w-261" value="N" style="text;html=1;strokeColor=none;fillColor=none;align=center;verticalAlign=middle;whiteSpace=wrap;rounded=0;fontColor=#FF0000;" vertex="1" parent="1">
          <mxGeometry x="120" y="310" width="40" height="20" as="geometry" />
        </mxCell>
        <mxCell id="KTUMlyn5Q8RxVWPa-o7w-275" value="Gruppo_Concerto" style="shape=table;startSize=30;container=1;collapsible=1;childLayout=tableLayout;fixedRows=1;rowLines=0;fontStyle=1;align=center;resizeLast=1;fontColor=#000000;" vertex="1" parent="1">
          <mxGeometry x="-1100" y="353" width="190" height="130" as="geometry" />
        </mxCell>
        <mxCell id="KTUMlyn5Q8RxVWPa-o7w-276" value="" style="shape=partialRectangle;collapsible=0;dropTarget=0;pointerEvents=0;fillColor=none;top=0;left=0;bottom=0;right=0;points=[[0,0.5],[1,0.5]];portConstraint=eastwest;" vertex="1" parent="KTUMlyn5Q8RxVWPa-o7w-275">
          <mxGeometry y="30" width="190" height="30" as="geometry" />
        </mxCell>
        <mxCell id="KTUMlyn5Q8RxVWPa-o7w-277" value="PK,FK1" style="shape=partialRectangle;connectable=0;fillColor=none;top=0;left=0;bottom=0;right=0;fontStyle=1;overflow=hidden;" vertex="1" parent="KTUMlyn5Q8RxVWPa-o7w-276">
          <mxGeometry width="60" height="30" as="geometry" />
        </mxCell>
        <mxCell id="KTUMlyn5Q8RxVWPa-o7w-278" value="ID_gruppo" style="shape=partialRectangle;connectable=0;fillColor=none;top=0;left=0;bottom=0;right=0;align=left;spacingLeft=6;fontStyle=5;overflow=hidden;" vertex="1" parent="KTUMlyn5Q8RxVWPa-o7w-276">
          <mxGeometry x="60" width="130" height="30" as="geometry" />
        </mxCell>
        <mxCell id="KTUMlyn5Q8RxVWPa-o7w-279" value="" style="shape=partialRectangle;collapsible=0;dropTarget=0;pointerEvents=0;fillColor=none;top=0;left=0;bottom=1;right=0;points=[[0,0.5],[1,0.5]];portConstraint=eastwest;" vertex="1" parent="KTUMlyn5Q8RxVWPa-o7w-275">
          <mxGeometry y="60" width="190" height="30" as="geometry" />
        </mxCell>
        <mxCell id="KTUMlyn5Q8RxVWPa-o7w-280" value="PK,FK2" style="shape=partialRectangle;connectable=0;fillColor=none;top=0;left=0;bottom=0;right=0;fontStyle=1;overflow=hidden;" vertex="1" parent="KTUMlyn5Q8RxVWPa-o7w-279">
          <mxGeometry width="60" height="30" as="geometry" />
        </mxCell>
        <mxCell id="KTUMlyn5Q8RxVWPa-o7w-281" value="ID_concerto" style="shape=partialRectangle;connectable=0;fillColor=none;top=0;left=0;bottom=0;right=0;align=left;spacingLeft=6;fontStyle=5;overflow=hidden;" vertex="1" parent="KTUMlyn5Q8RxVWPa-o7w-279">
          <mxGeometry x="60" width="130" height="30" as="geometry" />
        </mxCell>
        <mxCell id="KTUMlyn5Q8RxVWPa-o7w-282" value="" style="shape=partialRectangle;collapsible=0;dropTarget=0;pointerEvents=0;fillColor=none;top=0;left=0;bottom=0;right=0;points=[[0,0.5],[1,0.5]];portConstraint=eastwest;" vertex="1" parent="KTUMlyn5Q8RxVWPa-o7w-275">
          <mxGeometry y="90" width="190" height="30" as="geometry" />
        </mxCell>
        <mxCell id="KTUMlyn5Q8RxVWPa-o7w-283" value="FK" style="shape=partialRectangle;connectable=0;fillColor=none;top=0;left=0;bottom=0;right=0;editable=1;overflow=hidden;" vertex="1" parent="KTUMlyn5Q8RxVWPa-o7w-282">
          <mxGeometry width="60" height="30" as="geometry" />
        </mxCell>
        <mxCell id="KTUMlyn5Q8RxVWPa-o7w-284" value="ID_canzone_concerto" style="shape=partialRectangle;connectable=0;fillColor=none;top=0;left=0;bottom=0;right=0;align=left;spacingLeft=6;overflow=hidden;" vertex="1" parent="KTUMlyn5Q8RxVWPa-o7w-282">
          <mxGeometry x="60" width="130" height="30" as="geometry" />
        </mxCell>
        <mxCell id="KTUMlyn5Q8RxVWPa-o7w-298" value="Canzoni_Concerto" style="shape=table;startSize=30;container=1;collapsible=1;childLayout=tableLayout;fixedRows=1;rowLines=0;fontStyle=1;align=center;resizeLast=1;fontColor=#000000;" vertex="1" parent="1">
          <mxGeometry x="-764" y="545" width="180" height="130" as="geometry" />
        </mxCell>
        <mxCell id="KTUMlyn5Q8RxVWPa-o7w-299" value="" style="shape=partialRectangle;collapsible=0;dropTarget=0;pointerEvents=0;fillColor=none;top=0;left=0;bottom=1;right=0;points=[[0,0.5],[1,0.5]];portConstraint=eastwest;" vertex="1" parent="KTUMlyn5Q8RxVWPa-o7w-298">
          <mxGeometry y="30" width="180" height="30" as="geometry" />
        </mxCell>
        <mxCell id="KTUMlyn5Q8RxVWPa-o7w-300" value="PK" style="shape=partialRectangle;connectable=0;fillColor=none;top=0;left=0;bottom=0;right=0;fontStyle=1;overflow=hidden;" vertex="1" parent="KTUMlyn5Q8RxVWPa-o7w-299">
          <mxGeometry width="30" height="30" as="geometry" />
        </mxCell>
        <mxCell id="KTUMlyn5Q8RxVWPa-o7w-301" value="ID_canzone_concerto" style="shape=partialRectangle;connectable=0;fillColor=none;top=0;left=0;bottom=0;right=0;align=left;spacingLeft=6;fontStyle=5;overflow=hidden;" vertex="1" parent="KTUMlyn5Q8RxVWPa-o7w-299">
          <mxGeometry x="30" width="150" height="30" as="geometry" />
        </mxCell>
        <mxCell id="KTUMlyn5Q8RxVWPa-o7w-305" value="" style="shape=partialRectangle;collapsible=0;dropTarget=0;pointerEvents=0;fillColor=none;top=0;left=0;bottom=0;right=0;points=[[0,0.5],[1,0.5]];portConstraint=eastwest;" vertex="1" parent="KTUMlyn5Q8RxVWPa-o7w-298">
          <mxGeometry y="60" width="180" height="30" as="geometry" />
        </mxCell>
        <mxCell id="KTUMlyn5Q8RxVWPa-o7w-306" value="FK" style="shape=partialRectangle;connectable=0;fillColor=none;top=0;left=0;bottom=0;right=0;editable=1;overflow=hidden;" vertex="1" parent="KTUMlyn5Q8RxVWPa-o7w-305">
          <mxGeometry width="30" height="30" as="geometry" />
        </mxCell>
        <mxCell id="KTUMlyn5Q8RxVWPa-o7w-307" value="ID_gruppo" style="shape=partialRectangle;connectable=0;fillColor=none;top=0;left=0;bottom=0;right=0;align=left;spacingLeft=6;overflow=hidden;" vertex="1" parent="KTUMlyn5Q8RxVWPa-o7w-305">
          <mxGeometry x="30" width="150" height="30" as="geometry" />
        </mxCell>
        <mxCell id="KTUMlyn5Q8RxVWPa-o7w-311" style="shape=partialRectangle;collapsible=0;dropTarget=0;pointerEvents=0;fillColor=none;top=0;left=0;bottom=0;right=0;points=[[0,0.5],[1,0.5]];portConstraint=eastwest;" vertex="1" parent="KTUMlyn5Q8RxVWPa-o7w-298">
          <mxGeometry y="90" width="180" height="30" as="geometry" />
        </mxCell>
        <mxCell id="KTUMlyn5Q8RxVWPa-o7w-312" value="FK" style="shape=partialRectangle;connectable=0;fillColor=none;top=0;left=0;bottom=0;right=0;editable=1;overflow=hidden;" vertex="1" parent="KTUMlyn5Q8RxVWPa-o7w-311">
          <mxGeometry width="30" height="30" as="geometry" />
        </mxCell>
        <mxCell id="KTUMlyn5Q8RxVWPa-o7w-313" value="ID_canzone_incisa" style="shape=partialRectangle;connectable=0;fillColor=none;top=0;left=0;bottom=0;right=0;align=left;spacingLeft=6;overflow=hidden;" vertex="1" parent="KTUMlyn5Q8RxVWPa-o7w-311">
          <mxGeometry x="30" width="150" height="30" as="geometry" />
        </mxCell>
        <mxCell id="KTUMlyn5Q8RxVWPa-o7w-315" style="edgeStyle=orthogonalEdgeStyle;rounded=0;orthogonalLoop=1;jettySize=auto;html=1;startArrow=ERone;startFill=0;endArrow=ERmany;endFill=0;fontColor=#000000;" edge="1" parent="1" source="KTUMlyn5Q8RxVWPa-o7w-174" target="KTUMlyn5Q8RxVWPa-o7w-196">
          <mxGeometry relative="1" as="geometry" />
        </mxCell>
        <mxCell id="KTUMlyn5Q8RxVWPa-o7w-317" style="edgeStyle=orthogonalEdgeStyle;rounded=0;orthogonalLoop=1;jettySize=auto;html=1;entryX=0;entryY=0.5;entryDx=0;entryDy=0;startArrow=ERone;startFill=0;endArrow=ERmany;endFill=0;fontColor=#000000;" edge="1" parent="1" source="KTUMlyn5Q8RxVWPa-o7w-174" target="KTUMlyn5Q8RxVWPa-o7w-225">
          <mxGeometry relative="1" as="geometry" />
        </mxCell>
        <mxCell id="KTUMlyn5Q8RxVWPa-o7w-318" style="edgeStyle=orthogonalEdgeStyle;rounded=0;orthogonalLoop=1;jettySize=auto;html=1;entryX=1;entryY=0.5;entryDx=0;entryDy=0;startArrow=ERmany;startFill=0;endArrow=ERone;endFill=0;fontColor=#000000;exitX=0;exitY=0.5;exitDx=0;exitDy=0;" edge="1" parent="1" source="KTUMlyn5Q8RxVWPa-o7w-232" target="KTUMlyn5Q8RxVWPa-o7w-210">
          <mxGeometry relative="1" as="geometry" />
        </mxCell>
        <mxCell id="KTUMlyn5Q8RxVWPa-o7w-321" style="edgeStyle=orthogonalEdgeStyle;rounded=0;orthogonalLoop=1;jettySize=auto;html=1;exitX=0;exitY=0.5;exitDx=0;exitDy=0;entryX=0;entryY=0.5;entryDx=0;entryDy=0;startArrow=ERmany;startFill=0;endArrow=ERmany;endFill=0;fontColor=#000000;" edge="1" parent="1" source="KTUMlyn5Q8RxVWPa-o7w-276" target="KTUMlyn5Q8RxVWPa-o7w-174">
          <mxGeometry relative="1" as="geometry" />
        </mxCell>
        <mxCell id="KTUMlyn5Q8RxVWPa-o7w-322" style="edgeStyle=orthogonalEdgeStyle;rounded=0;orthogonalLoop=1;jettySize=auto;html=1;entryX=0;entryY=0.5;entryDx=0;entryDy=0;startArrow=ERmany;startFill=0;endArrow=ERmany;endFill=0;fontColor=#000000;exitX=0;exitY=0.5;exitDx=0;exitDy=0;" edge="1" parent="1" source="KTUMlyn5Q8RxVWPa-o7w-248" target="KTUMlyn5Q8RxVWPa-o7w-279">
          <mxGeometry relative="1" as="geometry" />
        </mxCell>
        <mxCell id="KTUMlyn5Q8RxVWPa-o7w-323" style="edgeStyle=orthogonalEdgeStyle;rounded=0;orthogonalLoop=1;jettySize=auto;html=1;exitX=0;exitY=0.5;exitDx=0;exitDy=0;entryX=1;entryY=0.5;entryDx=0;entryDy=0;startArrow=ERmany;startFill=0;endArrow=ERone;endFill=0;fontColor=#000000;" edge="1" parent="1" source="KTUMlyn5Q8RxVWPa-o7w-299" target="KTUMlyn5Q8RxVWPa-o7w-282">
          <mxGeometry relative="1" as="geometry" />
        </mxCell>
      </root>
    </mxGraphModel>
  </diagram>
</mxfile>
